<?xml version="1.0" standalone="no"?>
<!DOCTYPE svg PUBLIC "-//W3C//DTD SVG 20010904//EN"
 "http://www.w3.org/TR/2001/REC-SVG-20010904/DTD/svg10.dtd">
<svg version="1.0" xmlns="http://www.w3.org/2000/svg"
 width="512.000000pt" height="512.000000pt" viewBox="0 0 512.000000 512.000000"
 preserveAspectRatio="xMidYMid meet">
<metadata>
Created by potrace 1.11, written by Peter Selinger 2001-2013
</metadata>
<g transform="translate(0.000000,512.000000) scale(0.100000,-0.100000)"
fill="#000000" stroke="none">
<path d="M2320 5110 c-502 -52 -982 -248 -1365 -557 -288 -232 -517 -518 -684
-854 -124 -249 -204 -502 -247 -784 -26 -169 -26 -541 0 -710 71 -465 260
-899 543 -1250 232 -288 518 -517 854 -684 249 -124 502 -204 784 -247 169
-26 541 -26 710 0 465 71 899 260 1250 543 288 232 517 518 684 854 124 249
204 502 247 784 26 169 26 541 0 710 -71 465 -260 899 -543 1250 -232 288
-518 517 -854 684 -246 123 -506 205 -779 246 -124 19 -478 28 -600 15z m1758
-918 c3 -18 -64 -90 -336 -365 -186 -189 -347 -355 -356 -369 -31 -47 11 -88
56 -55 9 8 168 162 353 343 186 181 347 335 360 341 20 11 26 10 39 -3 9 -8
16 -20 16 -25 0 -14 -118 -138 -432 -454 -193 -195 -278 -287 -278 -303 0 -29
33 -46 61 -32 11 6 180 168 375 361 312 307 358 348 375 339 10 -6 19 -20 19
-31 0 -13 -117 -138 -338 -362 -186 -188 -346 -354 -356 -369 -21 -32 -8 -68
25 -68 14 0 146 122 385 356 228 222 371 354 381 352 32 -6 38 -34 14 -64 -82
-105 -867 -885 -936 -930 -11 -7 -79 -20 -150 -29 -187 -23 -194 -26 -326
-163 -144 -147 -349 -377 -349 -390 0 -13 408 -393 855 -797 185 -167 307
-290 321 -324 21 -51 17 -101 -13 -161 -22 -42 -38 -60 -72 -77 -51 -26 -124
-30 -174 -9 -32 13 -197 182 -413 422 -226 251 -686 754 -690 754 -3 0 -295
-320 -549 -600 -333 -369 -519 -563 -552 -576 -95 -40 -203 -1 -248 90 -49 97
-27 164 91 276 93 88 374 346 524 480 58 52 134 122 170 156 36 34 133 122
215 196 195 175 185 161 148 201 -319 344 -453 483 -482 503 -45 29 -102 40
-256 49 -295 16 -402 56 -561 213 -204 201 -355 564 -329 791 20 164 103 231
289 231 273 0 635 -185 805 -411 105 -139 135 -242 146 -509 8 -201 11 -207
218 -402 266 -252 366 -340 379 -335 20 7 474 433 501 469 31 41 42 84 57 223
8 70 20 125 32 150 21 41 653 685 841 857 103 94 138 109 145 60z"/>
</g>
</svg>
